<mxfile host="Electron" agent="Mozilla/5.0 (Windows NT 10.0; Win64; x64) AppleWebKit/537.36 (KHTML, like Gecko) draw.io/26.0.4 Chrome/128.0.6613.186 Electron/32.2.5 Safari/537.36" version="26.0.4">
  <diagram id="YnsuH4LNzArkPRJicwyz" name="Page-1">
    <mxGraphModel dx="2656" dy="894" grid="0" gridSize="10" guides="1" tooltips="1" connect="1" arrows="1" fold="1" page="1" pageScale="1" pageWidth="1100" pageHeight="850" background="#FFFFFF" math="0" shadow="0">
      <root>
        <mxCell id="0" />
        <mxCell id="1" parent="0" />
        <mxCell id="ZO6mygOJQg1MdGIY1tNN-86" value="" style="rounded=0;whiteSpace=wrap;html=1;" parent="1" vertex="1">
          <mxGeometry x="-12" y="13" width="1103" height="657" as="geometry" />
        </mxCell>
        <mxCell id="2" value="&lt;font style=&quot;font-size: 12px;&quot;&gt;On-premises (Azure)&lt;br style=&quot;&quot;&gt;192.168.100.0/24&lt;br&gt;&lt;/font&gt;" style="whiteSpace=wrap;html=1;labelBackgroundColor=none;fontFamily=Verdana;fontSize=15;labelPosition=center;verticalLabelPosition=bottom;align=center;verticalAlign=top;dashed=1;strokeColor=#808080;fillColor=#E6E6E6;" parent="1" vertex="1">
          <mxGeometry x="62" y="194" width="236" height="159.5" as="geometry" />
        </mxCell>
        <mxCell id="3" value="GatewaySubnet&lt;br&gt;10.100.0.32/27" style="whiteSpace=wrap;html=1;labelBackgroundColor=none;fontFamily=Verdana;fillColor=#CCCCCC;fontColor=#333333;strokeColor=none;fontSize=10;labelPosition=center;verticalLabelPosition=bottom;align=center;verticalAlign=top;dashed=1;" parent="1" vertex="1">
          <mxGeometry x="73.39999999999998" y="204" width="103.69" height="112.19" as="geometry" />
        </mxCell>
        <mxCell id="5" value="az-hub-vnet&lt;br style=&quot;font-size: 11px;&quot;&gt;10.0.0.0/24" style="whiteSpace=wrap;html=1;fillColor=none;strokeColor=#007FFF;dashed=1;labelPosition=center;verticalLabelPosition=top;align=center;verticalAlign=bottom;fontSize=11;fontFamily=Verdana;" parent="1" vertex="1">
          <mxGeometry x="490" y="87" width="134" height="247" as="geometry" />
        </mxCell>
        <mxCell id="6" value="" style="aspect=fixed;html=1;points=[];align=center;image;fontSize=12;image=img/lib/azure2/networking/Virtual_Networks.svg;dashed=1;fontFamily=Verdana;" parent="1" vertex="1">
          <mxGeometry x="608.9985556915544" y="88.08" width="21.64138017356475" height="12.920226969292392" as="geometry" />
        </mxCell>
        <mxCell id="7" value="GatewaySubnet" style="whiteSpace=wrap;html=1;labelBackgroundColor=none;fontFamily=Verdana;fillColor=#f5f5f5;fontColor=#333333;strokeColor=none;fontSize=10;labelPosition=left;verticalLabelPosition=bottom;align=right;verticalAlign=top;spacingLeft=0;spacingBottom=0;spacingRight=-63;spacing=-18;" parent="1" vertex="1">
          <mxGeometry x="494.71000000000004" y="208" width="125.29" height="120" as="geometry" />
        </mxCell>
        <mxCell id="9" value="Subnet1" style="whiteSpace=wrap;html=1;labelBackgroundColor=none;fontFamily=Verdana;fillColor=#f5f5f5;fontColor=#333333;strokeColor=none;fontSize=10;labelPosition=center;verticalLabelPosition=top;align=center;verticalAlign=bottom;" parent="1" vertex="1">
          <mxGeometry x="494.71000000000004" y="101" width="125.56" height="100" as="geometry" />
        </mxCell>
        <mxCell id="12" style="edgeStyle=none;html=1;fontFamily=Verdana;fontSize=10;endArrow=none;endFill=0;opacity=50;exitX=0;exitY=0.392;exitDx=0;exitDy=0;fontColor=#007FFF;strokeColor=#007FFF;strokeWidth=2;exitPerimeter=0;" parent="1" edge="1">
          <mxGeometry relative="1" as="geometry">
            <mxPoint x="701.04" y="104.99600000000002" as="sourcePoint" />
            <mxPoint x="623.3" y="118.36" as="targetPoint" />
          </mxGeometry>
        </mxCell>
        <mxCell id="13" value="az-spk1-vnet&lt;br style=&quot;font-size: 11px;&quot;&gt;10.0.1.0/24" style="whiteSpace=wrap;html=1;fillColor=none;strokeColor=#6c8ebf;dashed=1;labelBackgroundColor=none;fontFamily=Verdana;fontSize=11;labelPosition=center;verticalLabelPosition=top;align=center;verticalAlign=bottom;" parent="1" vertex="1">
          <mxGeometry x="701.04" y="56" width="234.96" height="118" as="geometry" />
        </mxCell>
        <mxCell id="14" value="" style="aspect=fixed;html=1;points=[];align=center;image;fontSize=12;image=img/lib/azure2/networking/Virtual_Networks.svg;dashed=1;labelBackgroundColor=none;fontFamily=Verdana;fillColor=default;" parent="1" vertex="1">
          <mxGeometry x="911" y="61" width="20.1" height="12" as="geometry" />
        </mxCell>
        <mxCell id="15" value="Subnet1" style="whiteSpace=wrap;html=1;labelBackgroundColor=none;fontFamily=Verdana;fillColor=#f5f5f5;fontColor=#333333;strokeColor=none;fontSize=10;labelPosition=center;verticalLabelPosition=top;align=center;verticalAlign=bottom;" parent="1" vertex="1">
          <mxGeometry x="710.04" y="73" width="214.96" height="94.79" as="geometry" />
        </mxCell>
        <mxCell id="ZO6mygOJQg1MdGIY1tNN-87" style="edgeStyle=orthogonalEdgeStyle;rounded=0;orthogonalLoop=1;jettySize=auto;html=1;endArrow=none;endFill=0;dashed=1;strokeColor=#00CC66;flowAnimation=1;strokeWidth=2;" parent="1" source="16" target="47" edge="1">
          <mxGeometry relative="1" as="geometry" />
        </mxCell>
        <mxCell id="ZO6mygOJQg1MdGIY1tNN-89" style="rounded=0;orthogonalLoop=1;jettySize=auto;html=1;strokeWidth=2;strokeColor=#00CC66;dashed=1;align=center;verticalAlign=middle;fontFamily=Helvetica;fontSize=11;fontColor=default;labelBackgroundColor=default;endArrow=none;endFill=0;flowAnimation=1;" parent="1" target="35" edge="1">
          <mxGeometry relative="1" as="geometry">
            <mxPoint x="757" y="97" as="sourcePoint" />
          </mxGeometry>
        </mxCell>
        <mxCell id="ZO6mygOJQg1MdGIY1tNN-94" value="&lt;span&gt;vNet Peering&lt;/span&gt;" style="edgeLabel;html=1;align=center;verticalAlign=middle;resizable=0;points=[];rotation=-9.4;fontSize=7;" parent="ZO6mygOJQg1MdGIY1tNN-89" vertex="1" connectable="0">
          <mxGeometry x="0.0429" y="-2" relative="1" as="geometry">
            <mxPoint x="-2" y="-5" as="offset" />
          </mxGeometry>
        </mxCell>
        <mxCell id="16" value="az-spk1-lxvm&lt;br&gt;10.0.1.4" style="aspect=fixed;html=1;points=[];align=center;image;fontSize=12;image=img/lib/azure2/compute/Virtual_Machine.svg;labelBackgroundColor=none;fontFamily=Verdana;fillColor=default;" parent="1" vertex="1">
          <mxGeometry x="752.0413" y="83.99988651535381" width="34.086598798397866" height="31.616555407209614" as="geometry" />
        </mxCell>
        <mxCell id="17" style="edgeStyle=none;html=1;exitX=0;exitY=0.5;exitDx=0;exitDy=0;fontFamily=Verdana;fontSize=10;endArrow=none;endFill=0;opacity=50;fontColor=#007FFF;strokeColor=#007FFF;entryX=1;entryY=0.57;entryDx=0;entryDy=0;strokeWidth=2;entryPerimeter=0;" parent="1" source="18" target="5" edge="1">
          <mxGeometry relative="1" as="geometry">
            <mxPoint x="627" y="175" as="targetPoint" />
          </mxGeometry>
        </mxCell>
        <mxCell id="ZO6mygOJQg1MdGIY1tNN-92" value="vNet Peering" style="edgeLabel;html=1;align=center;verticalAlign=middle;resizable=0;points=[];fontSize=7;rotation=30;" parent="17" vertex="1" connectable="0">
          <mxGeometry x="0.2968" y="1" relative="1" as="geometry">
            <mxPoint x="9" y="9" as="offset" />
          </mxGeometry>
        </mxCell>
        <mxCell id="18" value="az-spk2-vnet&lt;br style=&quot;font-size: 11px;&quot;&gt;10.0.2.0/24" style="whiteSpace=wrap;html=1;fillColor=none;strokeColor=#6c8ebf;dashed=1;labelBackgroundColor=none;fontFamily=Verdana;fontSize=11;labelPosition=center;verticalLabelPosition=top;align=center;verticalAlign=bottom;" parent="1" vertex="1">
          <mxGeometry x="701.04" y="213.55" width="140" height="116" as="geometry" />
        </mxCell>
        <mxCell id="19" value="" style="aspect=fixed;html=1;points=[];align=center;image;fontSize=12;image=img/lib/azure2/networking/Virtual_Networks.svg;dashed=1;labelBackgroundColor=none;fontFamily=Verdana;fillColor=default;" parent="1" vertex="1">
          <mxGeometry x="813.04" y="216.74" width="20.1" height="12" as="geometry" />
        </mxCell>
        <mxCell id="20" value="Subnet1" style="whiteSpace=wrap;html=1;labelBackgroundColor=none;fontFamily=Verdana;fillColor=#f5f5f5;fontColor=#333333;strokeColor=none;fontSize=10;labelPosition=center;verticalLabelPosition=top;align=center;verticalAlign=bottom;" parent="1" vertex="1">
          <mxGeometry x="710.04" y="230.55" width="120" height="94.79" as="geometry" />
        </mxCell>
        <mxCell id="23" value="Subnet1&lt;br&gt;10.100.0.96/27" style="whiteSpace=wrap;html=1;labelBackgroundColor=none;fontFamily=Verdana;fillColor=#CCCCCC;fontColor=#333333;strokeColor=none;fontSize=10;labelPosition=center;verticalLabelPosition=bottom;align=center;verticalAlign=top;dashed=1;" parent="1" vertex="1">
          <mxGeometry x="184" y="204" width="103.65" height="112.19" as="geometry" />
        </mxCell>
        <mxCell id="26" value="&lt;span style=&quot;font-weight: normal;&quot;&gt;onprem-lxvm&lt;br&gt;192.168.100.4&lt;/span&gt;" style="aspect=fixed;html=1;points=[];align=center;image;fontSize=12;image=img/lib/azure2/compute/Virtual_Machine.svg;labelBackgroundColor=none;fontFamily=Verdana;fillColor=default;fontStyle=1" parent="1" vertex="1">
          <mxGeometry x="108.20129999999995" y="227.28988651535383" width="34.086598798397866" height="31.616555407209614" as="geometry" />
        </mxCell>
        <mxCell id="31" value="" style="edgeStyle=none;html=1;strokeColor=#FF3333;fontFamily=Verdana;fontSize=10;fontColor=default;endArrow=none;endFill=0;strokeWidth=1;dashed=1;" parent="1" edge="1">
          <mxGeometry relative="1" as="geometry">
            <mxPoint x="547.5998245614037" y="258.9088620810268" as="targetPoint" />
            <mxPoint x="252" y="261.335090597464" as="sourcePoint" />
          </mxGeometry>
        </mxCell>
        <mxCell id="44" value="S2S IPSec VPN + BGP" style="edgeLabel;html=1;align=center;verticalAlign=middle;resizable=0;points=[];fontSize=10;fontColor=#FF3333;fontFamily=Verdana;" parent="31" vertex="1" connectable="0">
          <mxGeometry x="-0.3454" y="-4" relative="1" as="geometry">
            <mxPoint x="44" y="4" as="offset" />
          </mxGeometry>
        </mxCell>
        <mxCell id="34" value="az-spk2-lxvm&lt;br&gt;10.0.2.4" style="aspect=fixed;html=1;points=[];align=center;image;fontSize=12;image=img/lib/azure2/compute/Virtual_Machine.svg;labelBackgroundColor=none;fontFamily=Verdana;fillColor=default;" parent="1" vertex="1">
          <mxGeometry x="761.0412999999999" y="243.5498865153538" width="34.086598798397866" height="31.616555407209614" as="geometry" />
        </mxCell>
        <mxCell id="ZO6mygOJQg1MdGIY1tNN-90" style="edgeStyle=orthogonalEdgeStyle;rounded=0;orthogonalLoop=1;jettySize=auto;html=1;dashed=1;strokeColor=#00CC66;strokeWidth=2;align=center;verticalAlign=middle;fontFamily=Helvetica;fontSize=11;fontColor=default;labelBackgroundColor=default;endArrow=none;endFill=0;flowAnimation=1;" parent="1" source="35" target="36" edge="1">
          <mxGeometry relative="1" as="geometry">
            <Array as="points">
              <mxPoint x="512" y="131" />
              <mxPoint x="512" y="251" />
            </Array>
          </mxGeometry>
        </mxCell>
        <mxCell id="35" value="az-hub-lxvm&lt;br&gt;&lt;b&gt;Hub NVA&lt;/b&gt;&lt;br&gt;10.0.0.4" style="aspect=fixed;html=1;points=[];align=center;image;fontSize=12;image=img/lib/azure2/compute/Virtual_Machine.svg;labelBackgroundColor=none;fontFamily=Verdana;fillColor=default;" parent="1" vertex="1">
          <mxGeometry x="541.4612999999999" y="114.99988651535382" width="34.086598798397866" height="31.616555407209614" as="geometry" />
        </mxCell>
        <mxCell id="36" value="az-hub-vpngw&lt;br&gt;" style="aspect=fixed;html=1;points=[];align=center;image;fontSize=12;image=img/lib/azure2/networking/Virtual_Network_Gateways.svg;glass=0;dashed=1;dashPattern=8 8;strokeColor=#E6E6E6;fontColor=#000000;fillColor=#CCCCCC;rounded=0;sketch=1;hachureGap=4;jiggle=2;curveFitting=1;fontFamily=Verdana;labelBackgroundColor=#f5f5f5;fontStyle=0" parent="1" vertex="1">
          <mxGeometry x="547.5998245614036" y="232.2133884116066" width="27.943925233644855" height="37.081588785046726" as="geometry" />
        </mxCell>
        <mxCell id="21" value="onprem-vpngw" style="aspect=fixed;html=1;points=[];align=center;image;fontSize=12;image=img/lib/azure2/networking/Virtual_Network_Gateways.svg;glass=0;dashed=1;dashPattern=8 8;strokeColor=#E6E6E6;fontColor=#000000;fillColor=#CCCCCC;rounded=0;sketch=1;hachureGap=4;jiggle=2;curveFitting=1;fontFamily=Verdana;labelBackgroundColor=none;" parent="1" vertex="1">
          <mxGeometry x="224" y="234.83" width="28" height="37.16" as="geometry" />
        </mxCell>
        <mxCell id="47" value="az-spk1-lxvm2&lt;br&gt;10.0.1.5" style="aspect=fixed;html=1;points=[];align=center;image;fontSize=12;image=img/lib/azure2/compute/Virtual_Machine.svg;labelBackgroundColor=none;fontFamily=Verdana;fillColor=default;" parent="1" vertex="1">
          <mxGeometry x="854.0013" y="83.3798865153538" width="34.086598798397866" height="31.616555407209614" as="geometry" />
        </mxCell>
        <mxCell id="48" value="" style="aspect=fixed;html=1;points=[];align=center;image;fontSize=12;image=img/lib/azure2/networking/Route_Tables.svg;" parent="1" vertex="1">
          <mxGeometry x="485" y="339" width="29.94" height="29" as="geometry" />
        </mxCell>
        <mxCell id="49" value="10.0.1.0/24 &amp;gt; Hub NVA&lt;br&gt;10.0.2.0/24 &amp;gt; Hub NVA" style="text;html=1;align=center;verticalAlign=middle;resizable=0;points=[];autosize=1;strokeColor=none;fillColor=none;" parent="1" vertex="1">
          <mxGeometry x="510" y="336" width="141" height="41" as="geometry" />
        </mxCell>
        <mxCell id="50" value="RFC1918 &amp;gt; Hub NVA" style="text;html=1;align=center;verticalAlign=middle;resizable=0;points=[];autosize=1;strokeColor=none;fillColor=none;" parent="1" vertex="1">
          <mxGeometry x="939" y="84" width="132" height="26" as="geometry" />
        </mxCell>
        <mxCell id="51" value="" style="aspect=fixed;html=1;points=[];align=center;image;fontSize=12;image=img/lib/azure2/networking/Route_Tables.svg;" parent="1" vertex="1">
          <mxGeometry x="944" y="56" width="29.94" height="29" as="geometry" />
        </mxCell>
        <mxCell id="52" value="" style="aspect=fixed;html=1;points=[];align=center;image;fontSize=12;image=img/lib/azure2/networking/Route_Tables.svg;" parent="1" vertex="1">
          <mxGeometry x="850.13" y="208.24" width="29.94" height="29" as="geometry" />
        </mxCell>
        <mxCell id="53" value="RFC1918 &amp;gt; Hub NVA" style="text;html=1;align=center;verticalAlign=middle;resizable=0;points=[];autosize=1;strokeColor=none;fillColor=none;" parent="1" vertex="1">
          <mxGeometry x="841.94" y="237.24" width="132" height="26" as="geometry" />
        </mxCell>
        <mxCell id="54" value="" style="shape=table;startSize=0;container=1;collapsible=0;childLayout=tableLayout;" parent="1" vertex="1">
          <mxGeometry x="269" y="504" width="563" height="144.41668701171875" as="geometry" />
        </mxCell>
        <mxCell id="55" value="" style="shape=tableRow;horizontal=0;startSize=0;swimlaneHead=0;swimlaneBody=0;top=0;left=0;bottom=0;right=0;collapsible=0;dropTarget=0;fillColor=none;points=[[0,0.5],[1,0.5]];portConstraint=eastwest;" parent="54" vertex="1">
          <mxGeometry width="563" height="20" as="geometry" />
        </mxCell>
        <mxCell id="56" value="Source" style="shape=partialRectangle;html=1;whiteSpace=wrap;connectable=0;overflow=hidden;fillColor=none;top=0;left=0;bottom=0;right=0;pointerEvents=1;fontStyle=1" parent="55" vertex="1">
          <mxGeometry width="141" height="20" as="geometry">
            <mxRectangle width="141" height="20" as="alternateBounds" />
          </mxGeometry>
        </mxCell>
        <mxCell id="57" value="Dest" style="shape=partialRectangle;html=1;whiteSpace=wrap;connectable=0;overflow=hidden;fillColor=none;top=0;left=0;bottom=0;right=0;pointerEvents=1;fontStyle=1" parent="55" vertex="1">
          <mxGeometry x="141" width="140" height="20" as="geometry">
            <mxRectangle width="140" height="20" as="alternateBounds" />
          </mxGeometry>
        </mxCell>
        <mxCell id="58" value="Type" style="shape=partialRectangle;html=1;whiteSpace=wrap;connectable=0;overflow=hidden;fillColor=none;top=0;left=0;bottom=0;right=0;pointerEvents=1;fontStyle=1" parent="55" vertex="1">
          <mxGeometry x="281" width="141" height="20" as="geometry">
            <mxRectangle width="141" height="20" as="alternateBounds" />
          </mxGeometry>
        </mxCell>
        <mxCell id="71" value="TCP&lt;span style=&quot;white-space: pre;&quot;&gt;&#x9;&lt;/span&gt;" style="shape=partialRectangle;html=1;whiteSpace=wrap;connectable=0;overflow=hidden;fillColor=none;top=0;left=0;bottom=0;right=0;pointerEvents=1;fontStyle=1" parent="55" vertex="1">
          <mxGeometry x="422" width="141" height="20" as="geometry">
            <mxRectangle width="141" height="20" as="alternateBounds" />
          </mxGeometry>
        </mxCell>
        <mxCell id="59" value="" style="shape=tableRow;horizontal=0;startSize=0;swimlaneHead=0;swimlaneBody=0;top=0;left=0;bottom=0;right=0;collapsible=0;dropTarget=0;fillColor=none;points=[[0,0.5],[1,0.5]];portConstraint=eastwest;" parent="54" vertex="1">
          <mxGeometry y="20" width="563" height="31" as="geometry" />
        </mxCell>
        <mxCell id="60" value="az-spk1-lxvm" style="shape=partialRectangle;html=1;whiteSpace=wrap;connectable=0;overflow=hidden;fillColor=none;top=0;left=0;bottom=0;right=0;pointerEvents=1;" parent="59" vertex="1">
          <mxGeometry width="141" height="31" as="geometry">
            <mxRectangle width="141" height="31" as="alternateBounds" />
          </mxGeometry>
        </mxCell>
        <mxCell id="61" value="&lt;span style=&quot;font-family: Verdana;&quot;&gt;az-hub-lxvm&lt;/span&gt;" style="shape=partialRectangle;html=1;whiteSpace=wrap;connectable=0;overflow=hidden;fillColor=none;top=0;left=0;bottom=0;right=0;pointerEvents=1;" parent="59" vertex="1">
          <mxGeometry x="141" width="140" height="31" as="geometry">
            <mxRectangle width="140" height="31" as="alternateBounds" />
          </mxGeometry>
        </mxCell>
        <mxCell id="62" value="Inter-vNet" style="shape=partialRectangle;html=1;whiteSpace=wrap;connectable=0;overflow=hidden;fillColor=none;top=0;left=0;bottom=0;right=0;pointerEvents=1;" parent="59" vertex="1">
          <mxGeometry x="281" width="141" height="31" as="geometry">
            <mxRectangle width="141" height="31" as="alternateBounds" />
          </mxGeometry>
        </mxCell>
        <mxCell id="72" value="22" style="shape=partialRectangle;html=1;whiteSpace=wrap;connectable=0;overflow=hidden;fillColor=none;top=0;left=0;bottom=0;right=0;pointerEvents=1;" parent="59" vertex="1">
          <mxGeometry x="422" width="141" height="31" as="geometry">
            <mxRectangle width="141" height="31" as="alternateBounds" />
          </mxGeometry>
        </mxCell>
        <mxCell id="67" style="shape=tableRow;horizontal=0;startSize=0;swimlaneHead=0;swimlaneBody=0;top=0;left=0;bottom=0;right=0;collapsible=0;dropTarget=0;fillColor=none;points=[[0,0.5],[1,0.5]];portConstraint=eastwest;" parent="54" vertex="1">
          <mxGeometry y="51" width="563" height="31" as="geometry" />
        </mxCell>
        <mxCell id="68" value="az-spk1-lx&lt;b&gt;v&lt;/b&gt;m2" style="shape=partialRectangle;html=1;whiteSpace=wrap;connectable=0;overflow=hidden;fillColor=none;top=0;left=0;bottom=0;right=0;pointerEvents=1;" parent="67" vertex="1">
          <mxGeometry width="141" height="31" as="geometry">
            <mxRectangle width="141" height="31" as="alternateBounds" />
          </mxGeometry>
        </mxCell>
        <mxCell id="69" value="az-spk1-lxvm" style="shape=partialRectangle;html=1;whiteSpace=wrap;connectable=0;overflow=hidden;fillColor=none;top=0;left=0;bottom=0;right=0;pointerEvents=1;" parent="67" vertex="1">
          <mxGeometry x="141" width="140" height="31" as="geometry">
            <mxRectangle width="140" height="31" as="alternateBounds" />
          </mxGeometry>
        </mxCell>
        <mxCell id="70" value="Intra-vNet" style="shape=partialRectangle;html=1;whiteSpace=wrap;connectable=0;overflow=hidden;fillColor=none;top=0;left=0;bottom=0;right=0;pointerEvents=1;" parent="67" vertex="1">
          <mxGeometry x="281" width="141" height="31" as="geometry">
            <mxRectangle width="141" height="31" as="alternateBounds" />
          </mxGeometry>
        </mxCell>
        <mxCell id="73" value="22" style="shape=partialRectangle;html=1;whiteSpace=wrap;connectable=0;overflow=hidden;fillColor=none;top=0;left=0;bottom=0;right=0;pointerEvents=1;" parent="67" vertex="1">
          <mxGeometry x="422" width="141" height="31" as="geometry">
            <mxRectangle width="141" height="31" as="alternateBounds" />
          </mxGeometry>
        </mxCell>
        <mxCell id="81" style="shape=tableRow;horizontal=0;startSize=0;swimlaneHead=0;swimlaneBody=0;top=0;left=0;bottom=0;right=0;collapsible=0;dropTarget=0;fillColor=none;points=[[0,0.5],[1,0.5]];portConstraint=eastwest;" parent="54" vertex="1">
          <mxGeometry y="82" width="563" height="31" as="geometry" />
        </mxCell>
        <mxCell id="82" value="az-spk2-lxvm" style="shape=partialRectangle;html=1;whiteSpace=wrap;connectable=0;overflow=hidden;fillColor=none;top=0;left=0;bottom=0;right=0;pointerEvents=1;" parent="81" vertex="1">
          <mxGeometry width="141" height="31" as="geometry">
            <mxRectangle width="141" height="31" as="alternateBounds" />
          </mxGeometry>
        </mxCell>
        <mxCell id="83" value="az-spk1-lxvm" style="shape=partialRectangle;html=1;whiteSpace=wrap;connectable=0;overflow=hidden;fillColor=none;top=0;left=0;bottom=0;right=0;pointerEvents=1;" parent="81" vertex="1">
          <mxGeometry x="141" width="140" height="31" as="geometry">
            <mxRectangle width="140" height="31" as="alternateBounds" />
          </mxGeometry>
        </mxCell>
        <mxCell id="84" value="Inter-vNet (via Hub NVA)" style="shape=partialRectangle;html=1;whiteSpace=wrap;connectable=0;overflow=hidden;fillColor=none;top=0;left=0;bottom=0;right=0;pointerEvents=1;" parent="81" vertex="1">
          <mxGeometry x="281" width="141" height="31" as="geometry">
            <mxRectangle width="141" height="31" as="alternateBounds" />
          </mxGeometry>
        </mxCell>
        <mxCell id="85" value="22" style="shape=partialRectangle;html=1;whiteSpace=wrap;connectable=0;overflow=hidden;fillColor=none;top=0;left=0;bottom=0;right=0;pointerEvents=1;" parent="81" vertex="1">
          <mxGeometry x="422" width="141" height="31" as="geometry">
            <mxRectangle width="141" height="31" as="alternateBounds" />
          </mxGeometry>
        </mxCell>
        <mxCell id="75" style="shape=tableRow;horizontal=0;startSize=0;swimlaneHead=0;swimlaneBody=0;top=0;left=0;bottom=0;right=0;collapsible=0;dropTarget=0;fillColor=none;points=[[0,0.5],[1,0.5]];portConstraint=eastwest;" parent="54" vertex="1">
          <mxGeometry y="113" width="563" height="31" as="geometry" />
        </mxCell>
        <mxCell id="76" value="onprem-lxvm" style="shape=partialRectangle;html=1;whiteSpace=wrap;connectable=0;overflow=hidden;fillColor=none;top=0;left=0;bottom=0;right=0;pointerEvents=1;" parent="75" vertex="1">
          <mxGeometry width="141" height="31" as="geometry">
            <mxRectangle width="141" height="31" as="alternateBounds" />
          </mxGeometry>
        </mxCell>
        <mxCell id="77" value="&lt;span style=&quot;font-family: Verdana;&quot;&gt;az-hub-lxvm&lt;/span&gt;" style="shape=partialRectangle;html=1;whiteSpace=wrap;connectable=0;overflow=hidden;fillColor=none;top=0;left=0;bottom=0;right=0;pointerEvents=1;" parent="75" vertex="1">
          <mxGeometry x="141" width="140" height="31" as="geometry">
            <mxRectangle width="140" height="31" as="alternateBounds" />
          </mxGeometry>
        </mxCell>
        <mxCell id="78" value="S2S VPN (via VNG)" style="shape=partialRectangle;html=1;whiteSpace=wrap;connectable=0;overflow=hidden;fillColor=none;top=0;left=0;bottom=0;right=0;pointerEvents=1;" parent="75" vertex="1">
          <mxGeometry x="281" width="141" height="31" as="geometry">
            <mxRectangle width="141" height="31" as="alternateBounds" />
          </mxGeometry>
        </mxCell>
        <mxCell id="79" value="22" style="shape=partialRectangle;html=1;whiteSpace=wrap;connectable=0;overflow=hidden;fillColor=none;top=0;left=0;bottom=0;right=0;pointerEvents=1;" parent="75" vertex="1">
          <mxGeometry x="422" width="141" height="31" as="geometry">
            <mxRectangle width="141" height="31" as="alternateBounds" />
          </mxGeometry>
        </mxCell>
        <mxCell id="80" value="Traffic Flows" style="text;html=1;align=center;verticalAlign=middle;resizable=0;points=[];autosize=1;strokeColor=none;fillColor=none;fontStyle=1" parent="1" vertex="1">
          <mxGeometry x="501" y="468" width="91" height="26" as="geometry" />
        </mxCell>
        <mxCell id="ZO6mygOJQg1MdGIY1tNN-91" style="rounded=0;orthogonalLoop=1;jettySize=auto;html=1;strokeWidth=2;strokeColor=#00CC66;dashed=1;align=center;verticalAlign=middle;fontFamily=Helvetica;fontSize=9;fontColor=default;labelBackgroundColor=default;endArrow=none;endFill=0;flowAnimation=1;exitX=0.014;exitY=0.541;exitDx=0;exitDy=0;exitPerimeter=0;entryX=0.936;entryY=0.659;entryDx=0;entryDy=0;entryPerimeter=0;" parent="1" source="34" target="35" edge="1">
          <mxGeometry relative="1" as="geometry">
            <mxPoint x="767" y="107" as="sourcePoint" />
            <mxPoint x="586" y="138" as="targetPoint" />
            <Array as="points">
              <mxPoint x="704" y="270" />
              <mxPoint x="627" y="227" />
              <mxPoint x="612" y="171" />
            </Array>
          </mxGeometry>
        </mxCell>
      </root>
    </mxGraphModel>
  </diagram>
</mxfile>
